# AST/ASF file generated using VICON BodyLanguage
# -----------------------------------------------
:version 1.10
:name VICON
:units
  mass 1.0
  length 0.45
  angle deg
:documentation
   .ast/.asf automatically generated from VICON data using
   VICON BodyBuilder and BodyLanguage model FoxedUp or BRILLIANT.MOD
:root
   order TX TY TZ RX RY RZ
   axis XYZ
   position 0 0 0  
   orientation 0 0 0 
:bonedata
  begin
     id 1 
     name lhipjoint
     direction 0.756833 -0.6125 0.228138 
     length 2.53827 
     axis 0 0 0  XYZ
  end
  begin
     id 2 
     name lfemur
     direction 0.34202 -0.939693 0  
     length 6.51821  
     axis 0 0 20  XYZ
    dof rx ry rz
    limits (-160.0 20.0)
           (-70.0 70.0)
           (-60.0 70.0)
  end
  begin
     id 3 
     name ltibia
     direction 0.34202 -0.939693 0   
     length 6.99902   
     axis 0 0 20   XYZ
    dof rx
    limits (-10.0 170.0)
  end
  begin
     id 4 
     name lfoot
     direction 0.0951515 -0.261427 0.960522   
     length 1.92102   
     axis -90 7.62852e-016 20   XYZ
    dof rx rz
    limits (-45.0 90.0)
           (-70.0 20.0)
  end
  begin
     id 5 
     name ltoes
     direction 1.53539e-011 -4.21781e-011 1   
     length 0.964376   
     axis -90 7.62852e-016 20   XYZ
    dof rx
    limits (-90.0 20.0)
  end
  begin
     id 6 
     name rhipjoint
     direction -0.752153 -0.617542 0.230017   
     length 2.51754  
     axis 0 0 0  XYZ 
  end
  begin
     id 7 
     name rfemur
     direction -0.34202 -0.939693 0   
     length 6.82377   
     axis 0 0 -20   XYZ
    dof rx ry rz
    limits (-160.0 20.0)
           (-70.0 70.0)
           (-70.0 60.0)
  end
  begin
     id 8 
     name rtibia
     direction -0.34202 -0.939693 0   
     length 6.98689   
     axis 0 0 -20   XYZ
    dof rx
    limits (-10.0 170.0)
 end
 begin
     id 9 
     name rfoot
     direction -0.0900426 -0.24739 0.964723   
     length 2.03215  
     axis -90 -7.62852e-016 -20   XYZ
    dof rx rz
    limits (-45.0 90.0)
           (-20.0 70.0)
  end
  begin
     id 10 
     name rtoes
     direction -1.53466e-011 -4.22206e-011 1   
     length 1.0197   
     axis -90 -7.62852e-016 -20   XYZ
    dof rx
    limits (-90.0 20.0)
  end
  begin
     id 11 
     name lowerback
     direction 0.0184183 0.995705 -0.0907278   
     length 2.019   
     axis 0 0 0   XYZ
    dof rx ry rz
    limits (-20.0 45.0)
           (-30.0 30.0)
           (-30.0 30.0)
  end
  begin
     id 12 
     name upperback
     direction 0.00281055 0.998777 0.0493607   
     length 1.99623   
     axis 0 0 0   XYZ
    dof rx ry rz
    limits (-20.0 45.0)
           (-30.0 30.0)
           (-30.0 30.0)
  end
  begin
     id 13 
     name thorax
     direction -0.00665507 0.995706 0.092331   
     length 2.02811   
     axis 0 0 0   XYZ
    dof rx ry rz
    limits (-20.0 45.0)
           (-30.0 30.0)
           (-30.0 30.0)
  end
  begin
     id 14 
     name lowerneck
     direction -0.0960965 0.994358 0.0449225   
     length 1.71265   
     axis 0 0 0   XYZ
    dof rx ry rz
    limits (-20.0 45.0)
           (-30.0 30.0)
           (-30.0 30.0)
  end
  begin
     id 15 
     name upperneck
     direction 0.13642 0.985357 -0.102278   
     length 1.73016   
     axis 0 0 0   XYZ
    dof rx ry rz
    limits (-20.0 45.0)
           (-30.0 30.0)
           (-30.0 30.0)
  end
  begin
     id 16
     name head
     direction 0.0556079 0.997632 -0.040479  
     length 1.74275  
     axis 0 0 0   XYZ
    dof rx ry rz
    limits (-20.0 45.0)
           (-30.0 30.0)
           (-30.0 30.0)
  end
  begin
     id 17 
     name lclavicle
     direction 0.90877 0.417247 -0.00652364  
     length 3.25514  
     axis 0 0 0   XYZ
    dof ry rz
    limits (-20.0 10.0)
           (0.0 20.0)
  end
  begin
     id 18 
     name lhumerus
     direction 1 -4.48949e-011 8.31417e-028   
     length 4.84834   
     axis 180 -30 -90   XYZ
    dof rx ry rz
    limits (-60.0 90.0)
           (-90.0 90.0)
           (-90.0 90.0)
  end
  begin
     id 19
     name lradius
     direction 1 -4.48984e-011 3.45616e-027   
     length 2.99713   
     axis 180 -30 -90   XYZ
    dof rx
    limits (-10.0 170.0)
  end
  begin
     id 20
     name lwrist
     direction 1 -4.4891e-011 4.0479e-027   
     length 1.49857   
     axis -1.61768e-015 90 90   XYZ
    dof ry
    limits (-180.0 0.0)
 end
  begin
     id 21 
     name lhand
     direction 1 -4.49025e-011 8.0958e-027   
     length 0.693987   
     axis -5.16581e-015 90 90   XYZ
    dof rx rz
    limits (-90.0 90.0)
           (-45.0 45.0)
  end
  begin
     id 22 
     name lfingers
     direction 1 -4.4888e-011 1.61916e-026   
     length 0.55951   
     axis -1.03316e-014 90 90   XYZ
    dof rx
    limits (0.0 90.0)
  end
  begin
     id 23
     name lthumb
     direction 0.707107 -6.3493e-011 0.707107   
     length 0.803348   
     axis -90 45 2.85299e-015   XYZ
    dof rx rz
    limits (-45.0 45.0)
           (-45.0 45.0)
  end
  begin
     id 24 
     name rclavicle
     direction -0.906655 0.41906 0.0486307   
     length 3.3311  
     axis 0 0 0   XYZ 
    dof ry rz
    limits (-10.0 20.0)
           (-20.0 0.0)
  end
  begin
     id 25 
     name rhumerus
     direction -1 -4.48959e-011 6.37764e-018  
     length 4.93457   
     axis 180 30 90   XYZ
    dof rx ry rz
    limits (-90.0 60.0)
           (-90.0 90.0)
           (-90.0 90.0)
  end
  begin
     id 26 
     name rradius
     direction -1 -4.48957e-011 2.20847e-027   
     length 3.3443   
     axis 180 30 90   XYZ
    dof rx
    limits (-10.0 170.0)
  end
  begin
     id 27 
     name rwrist
     direction -1 -4.49008e-011 4.0479e-027   
     length 1.67215   
     axis -1.61768e-015 -90 -90   XYZ
    dof ry
    limits (-180.0 0.0)
  end
  begin
     id 28
     name rhand
     direction -1 -4.49013e-011 8.0958e-027   
     length 0.677363   
     axis -5.16581e-015 -90 -90   XYZ
    dof rx rz
    limits (-90.0 90.0)
           (-45.0 45.0)
  end
  begin
     id 29
     name rfingers
     direction -1 -4.48832e-011 1.61916e-026   
     length 0.546107   
     axis -1.03316e-014 -90 -90   XYZ
    dof rx
    limits (0.0 90.0)
  end
  begin
     id 30
     name rthumb
     direction -0.707107 -6.34895e-011 0.707107   
     length 0.784104   
     axis -90 -45 -2.85299e-015   XYZ
    dof rx rz
    limits (-45.0 45.0)
           (-45.0 45.0)
  end
:hierarchy
  begin
    root lhipjoint rhipjoint lowerback
    lhipjoint lfemur
    lfemur ltibia
    ltibia lfoot
    lfoot ltoes
    rhipjoint rfemur
    rfemur rtibia
    rtibia rfoot
    rfoot rtoes
    lowerback upperback
    upperback thorax
    thorax lowerneck lclavicle rclavicle
    lowerneck upperneck
    upperneck head
    lclavicle lhumerus
    lhumerus lradius
    lradius lwrist
    lwrist lhand lthumb
    lhand lfingers
    rclavicle rhumerus
    rhumerus rradius
    rradius rwrist
    rwrist rhand rthumb
    rhand rfingers
  end

#!OML:ASF H:\Terrain\Patient Classification 1\junglegym\FridayTest\junglegym.ASF
:FULLY-SPECIFIED
:DEGREES
170
root -1.40797 16.5951 0.035478 67.9514 -85.649 -52.1694
lowerback 1.69559 -0.839365 2.86893
upperback -5.48362 -0.943475 2.97662
thorax -6.65553 -0.587256 1.57731
lowerneck 7.48723 4.28065 -14.1028
upperneck 40.7984 -0.593204 10.7435
head 12.3609 -2.43617 6.57756
rclavicle 1.98785e-015 -1.31198e-014
rhumerus 97.383 -26.9035 -56.6245
rradius 48.1244
rwrist 2.24418
rhand -5.13647 25.9977
rfingers 7.12502
rthumb 20.6623 -2.92243
lclavicle 1.98785e-015 -1.31198e-014
lhumerus 93.9479 28.8166 59.0157
lradius 50.4389
lwrist -22.1828
lhand -6.2619 23.755
lfingers 7.12502
lthumb 19.5806 52.7889
rfemur -12.5219 -1.08588 21.4745
rtibia 76.3777
rfoot 1.80213 -4.72708
rtoes -4.05361
lfemur 0.570829 14.6466 -21.2648
ltibia 70.0387
lfoot 6.12717 6.80319
ltoes -24.2891
171
root -1.16437 16.6688 0.0487064 68.1245 -85.8134 -51.6546
lowerback 1.66906 -0.414514 3.44495
upperback -5.30748 -0.378333 2.11877
thorax -6.46483 -0.351271 0.312408
lowerneck 7.54144 3.74092 -12.4907
upperneck 40.6671 -1.4331 10.8313
head 12.4107 -2.55095 6.26861
rclavicle 3.42904e-015 3.97569e-016
rhumerus 96.1755 -28.364 -56.4958
rradius 48.3942
rwrist 2.88332
rhand -6.01333 26.2832
rfingers 7.12502
rthumb 19.8195 -2.72631
lclavicle 3.42904e-015 3.97569e-016
lhumerus 94.6244 27.189 59.4757
lradius 51.1386
lwrist -22.5212
lhand -6.96698 23.0777
lfingers 7.12502
lthumb 18.9026 52.1793
rfemur -12.8071 -1.7527 20.8449
rtibia 76.1354
rfoot 2.37948 -4.33724
rtoes -1.17578
lfemur 0.139919 14.3175 -21.7428
ltibia 69.658
lfoot 6.41612 6.38379
ltoes -27.3781
172
root -0.930717 16.7477 0.0262854 68.7505 -87.2379 -50.6942
lowerback 0.70089 0.303198 2.40158
upperback -5.33255 0.443906 0.854996
thorax -5.90633 0.0839819 -0.477987
lowerneck 7.51041 2.98707 -10.3498
upperneck 40.5928 -2.57095 10.8069
head 12.5386 -2.73465 5.79482
rclavicle -5.71506e-015 1.19271e-015
rhumerus 94.9396 -30.3763 -56.472
rradius 48.5123
rwrist 3.22558
rhand -6.38261 27.2846
rfingers 7.12502
rthumb 19.4645 -1.76118
lclavicle -5.71506e-015 1.19271e-015
lhumerus 95.5086 25.9615 58.8315
lradius 52.2898
lwrist -21.748
lhand -7.23493 24.5409
lfingers 7.12502
lthumb 18.6449 53.6674
rfemur -14.5525 -1.49027 19.3605
rtibia 76.232
rfoot 2.69981 -4.25951
rtoes 0.56365
lfemur -1.43366 14.2764 -23.7396
ltibia 69.1782
lfoot 7.09073 6.21602
ltoes -35.0063
173
root -0.71738 16.8262 0.0402723 75.3883 -86.1353 -56.9205
lowerback 0.928887 0.58358 4.08158
upperback -5.19415 0.884193 0.549086
thorax -5.8599 0.21774 -1.76255
lowerneck 7.71584 2.52503 -8.90539
upperneck 40.4607 -3.26905 10.6889
head 12.5253 -2.84502 5.42542
rclavicle -4.09683e-015 -2.7044e-014
rhumerus 94.0979 -31.3766 -56.5214
rradius 48.5036
rwrist 3.50351
rhand -6.85823 28.3793
rfingers 7.12502
rthumb 19.0072 -0.712029
lclavicle -4.09683e-015 -2.7044e-014
lhumerus 96.3415 24.838 58.7562
lradius 52.1543
lwrist -21.9712
lhand -7.84608 25.3579
lfingers 7.12502
lthumb 18.0569 54.5397
rfemur -14.276 -1.31339 20.6563
rtibia 75.677
rfoot 2.31425 -4.84348
rtoes -0.361545
lfemur -1.48976 13.8945 -22.5715
ltibia 68.8968
lfoot 7.10672 5.96636
ltoes -42.9714
174
root -0.506191 16.9071 0.0611102 75.6973 -85.456 -56.9449
lowerback 1.42424 0.671622 5.01651
upperback -5.13434 1.06853 0.438596
thorax -6.06032 0.259231 -2.41819
lowerneck 8.29008 2.07271 -7.62035
upperneck 40.0153 -3.69837 9.93217
head 12.2535 -2.91689 4.82571
rclavicle -1.24737e-014 -1.75427e-014
rhumerus 93.0156 -31.9331 -55.8127
rradius 49.0476
rwrist 3.60553
rhand -7.84669 27.3764
rfingers 7.12502
rthumb 18.0563 -1.80542
lclavicle -1.24737e-014 -1.75427e-014
lhumerus 96.553 23.8757 59.1729
lradius 52.1985
lwrist -22.4529
lhand -8.24038 24.7713
lfingers 7.12502
lthumb 17.6775 53.9877
rfemur -13.906 -1.33554 21.2927
rtibia 75.1519
rfoot 2.35658 -5.53489
rtoes 2.49716
lfemur -1.47728 13.3291 -21.9922
ltibia 68.5723
lfoot 7.22485 5.83147
ltoes -36.7175
175
root -0.293518 16.9998 0.0762012 70.8656 -85.9377 -51.3616
lowerback 1.11118 0.760537 4.72838
upperback -4.96436 1.13824 0.0157983
thorax -5.68929 0.312258 -2.69621
lowerneck 8.25878 1.81866 -7.1076
upperneck 39.9372 -4.11409 10.0778
head 12.2708 -3.00567 4.76206
rclavicle -9.44227e-015 -4.77083e-015
rhumerus 92.3686 -32.5231 -55.5483
rradius 49.434
rwrist 3.84414
rhand -8.61278 26.8236
rfingers 7.12502
rthumb 17.3191 -2.42471
lclavicle -9.44227e-015 -4.77083e-015
lhumerus 96.9132 23.2319 59.5454
lradius 52.5289
lwrist -22.6532
lhand -8.54763 24.5295
lfingers 7.12502
lthumb 17.3819 53.7723
rfemur -14.2728 -1.69919 20.4412
rtibia 74.7862
rfoot 2.714 -5.08267
rtoes 12.7578
lfemur -2.13856 12.459 -23.0136
ltibia 68.1488
lfoot 7.14423 6.74616
ltoes -33.7501
